<?xml version="1.0" encoding="utf-8"?>
<!-- Generator: Adobe Illustrator 22.0.1, SVG Export Plug-In . SVG Version: 6.00 Build 0)  -->
<svg version="1.1" id="Layer_1" xmlns="http://www.w3.org/2000/svg" xmlns:xlink="http://www.w3.org/1999/xlink" x="0px" y="0px"
	 viewBox="0 0 268.549 80.443" style="enable-background:new 0 0 268.549 80.443;" xml:space="preserve">
<style type="text/css">
	.st0{fill:#323232;}
	.st1{fill:#FFFFFF;}
	.st2{fill:#A4A8B1;}
</style>
<rect y="0" class="st0" width="268.549" height="80.443"/>
<g>
	<path class="st1" d="M208.693,28.653c2.732,0,4.918-2.004,4.918-4.554s-2.186-4.736-4.918-4.736s-4.918,2.004-4.918,4.554
		S205.961,28.653,208.693,28.653z"/>
	<path class="st1" d="M205.05,35.029v26.229c0,1.457,2.004,1.821,3.825,1.821c2.004,0,3.825-0.364,3.825-1.821V35.029
		c0-1.821-2.004-2.186-3.825-2.186C206.872,32.843,205.05,33.025,205.05,35.029z"/>
	<path class="st1" d="M221.079,21.55v39.708c0,1.457,2.004,1.821,3.825,1.821c2.004,0,3.825-0.364,3.825-1.821V21.55
		c0-1.821-2.004-2.186-3.825-2.186C223.083,19.364,221.079,19.546,221.079,21.55z"/>
	<path class="st1" d="M166.071,47.415c0-8.197,6.557-15.665,16.211-15.665c9.472,0,16.393,7.286,16.393,15.665
		c0,8.925-7.468,15.665-16.211,15.665C172.81,63.079,166.071,55.611,166.071,47.415z M182.282,56.704c5.1,0,8.925-4.189,8.925-9.289
		s-3.825-9.107-8.925-9.107s-8.925,4.189-8.925,9.289S177.182,56.704,182.282,56.704z"/>
	<path class="st1" d="M161.699,55.065c0,4.007-9.472,8.014-15.847,8.014c-8.014,0-15.482-4.189-19.307-11.111
		c-1.821-3.279-2.732-6.739-2.732-10.382c0-4.189,1.275-8.379,3.643-12.022c1.821-2.914,5.464-6.922,11.657-8.925
		c1.639-0.546,4.554-1.275,7.65-1.275c8.925,0,14.754,6.193,14.754,11.839c0,3.825-3.096,9.107-10.564,9.107
		c-3.461,0-4.554-1.457-4.554-3.096c0-2.186,2.004-4.918,3.643-4.918c0.546,0,1.093,0.546,2.186,0.546
		c1.275-0.182,1.821-0.911,1.821-2.004c0-1.821-2.186-4.372-7.104-4.372c-1.457,0-3.279,0.182-5.464,0.911
		c-4.189,1.093-6.557,4.189-7.832,6.193c-1.639,2.368-2.368,5.282-2.368,8.014c0,2.368,0.546,4.736,1.821,6.922
		c2.55,4.554,7.468,7.286,12.75,7.286c7.286,0,9.472-4.007,10.929-4.554C159.331,49.965,161.699,53.061,161.699,55.065z"/>
</g>
<path class="st1" d="M0,80.443h88.397c9.645-10.629,15.522-24.739,15.522-40.222S98.042,10.629,88.397,0H0V80.443z"/>
<g>
	<path class="st2" d="M24.754,38.045L41.9,19.358c1.153-1.257,3.135-1.257,4.288,0l17.146,18.687
		c1.712,1.866,0.388,4.877-2.144,4.877H26.898C24.366,42.922,23.042,39.911,24.754,38.045z"/>
	<path class="st2" d="M44.045,31.945L44.045,31.945c4.24,0,7.708,3.469,7.708,7.708v19.375c0,1.65-1.35,3-3,3h-9.417
		c-1.65,0-3-1.35-3-3V39.653C36.336,35.414,39.805,31.945,44.045,31.945z"/>
	<path class="st2" d="M49.775,36.466h-9.438c-3.523,0-6.406,2.883-6.406,6.406c0,0.038,0.005,0.074,0.006,0.111
		c1.365,0.28,2.4,1.494,2.4,2.939v1.939c1.099,0.884,2.49,1.417,4.001,1.417h9.438c0.69,0,1.354-0.114,1.978-0.318v-3.038
		c0-1.65,1.35-3,3-3h1.425c0-0.017,0.003-0.033,0.003-0.05C56.181,39.348,53.298,36.466,49.775,36.466z"/>
</g>
</svg>
